<?xml version="1.0" encoding="utf-8"?>
<!-- Generator: Adobe Illustrator 24.3.0, SVG Export Plug-In . SVG Version: 6.00 Build 0)  -->
<svg version="1.1" id="Layer_1" xmlns="http://www.w3.org/2000/svg" xmlns:xlink="http://www.w3.org/1999/xlink" x="0px" y="0px"
	 viewBox="0 0 76.18 33.43" style="enable-background:new 0 0 76.18 33.43;" xml:space="preserve">
<style type="text/css">
	.st0{fill:#6B9D44;}
	.st1{fill:#6C9D44;}
	.st2{fill:#669B44;}
	.st3{fill:#6F9F47;}
	.st4{fill:#659B44;}
	.st5{fill:#639A45;}
	.st6{fill:#619945;}
	.st7{fill:#629946;}
	.st8{fill:#609845;}
	.st9{fill:#649A45;}
	.st10{fill:#FFFFFF;}
	.st11{fill:#E4E5E3;}
	.st12{fill:#E5E6E5;}
	.st13{fill:#609846;}
	.st14{fill:#E5E6E4;}
</style>
<g id="hkWQzJ_1_">
	<g>
		<path class="st0" d="M21.19,6.89c1,0.1,1.71,0.64,2.19,1.49c1.61,2.8,3.21,5.61,4.81,8.42c0.6,1.05,0.6,2.12-0.01,3.18
			c-1.58,2.77-3.16,5.55-4.74,8.32c-0.65,1.14-1.65,1.68-2.95,1.69c-3.05,0.01-6.09,0-9.14,0c-1.35,0-2.35-0.57-3.03-1.75
			c-1.56-2.74-3.12-5.48-4.7-8.21c-0.63-1.1-0.63-2.18,0-3.28c1.59-2.77,3.18-5.54,4.76-8.31c0.49-0.85,1.17-1.4,2.17-1.53
			C14.1,7.04,17.65,7.05,21.19,6.89z"/>
		<path class="st0" d="M67.28,15.86c-1.9-0.36-2.98-1.55-3.3-3.6c-0.34-2.16,0.47-4.06,2.11-4.95c1.58-0.86,3.11-0.59,4.84,0.94
			c0.01-0.65,0.16-1.18,0.78-1.35c0.45-0.12,0.83,0,1.07,0.44c0.08,2.43,0.15,4.86-0.04,7.29c-0.02,0.19-0.02,0.38,0.08,0.55
			c-0.29,1.81-1.27,2.85-3.14,3.18c-1.54,0.27-3.07,0.14-4.53-0.52c-0.51-0.23-1.07-0.5-0.81-1.17c0.27-0.69,0.82-0.69,1.44-0.38
			c0.84,0.43,1.74,0.57,2.69,0.53c1.39-0.06,2.01-0.56,2.42-2.1c-0.75,0.49-1.31,1.19-2.22,1.15C68.2,15.72,67.74,15.72,67.28,15.86
			z"/>
		<path class="st0" d="M40.65,15.87c-0.99,0.08-1.47-0.88-2.3-1.13c-0.27,1.07-0.15,2.15-0.07,3.23c-0.59,0.83-1.17,0.85-1.75-0.01
			c0.09-3.46,0.13-6.93-0.02-10.39c0.14-0.54,0.53-0.76,1.04-0.68c0.69,0.11,0.84,0.67,0.89,1.42c0.88-0.85,1.72-1.48,2.89-1.47
			c0.84,0.01,1.59,0.23,2.28,0.69c1.52,1.02,2.21,3.01,1.75,5.02c-0.44,1.96-1.55,3.06-3.33,3.32
			C41.57,15.7,41.11,15.72,40.65,15.87z"/>
		<path class="st0" d="M63.07,15.19c-0.56,0.97-1,1.03-1.79,0.23c0.19-0.76,0.05-1.53,0.09-2.3c0.04-0.74-0.06-1.49,0.03-2.23
			c-0.13,1.44,0.13,2.91-0.16,4.34c-0.31-1.48-0.05-2.98-0.14-4.47c-0.11-1.63-1.27-2.46-2.64-1.88c-0.8,0.35-1.15,0.99-1.16,1.83
			c-0.01,1.31-0.01,2.62-0.01,3.93c0,0.74-0.2,1.32-1.09,1.28c-0.83-0.04-0.96-0.62-0.95-1.3c0-2.04,0.01-4.08,0-6.12
			c0-0.68-0.01-1.39,0.8-1.59c0.84-0.21,1.08,0.5,1.37,1.08c2.26-2.22,5.63-0.91,5.66,1.65C62.94,11.5,62.93,13.34,63.07,15.19z"/>
		<path class="st0" d="M33.93,22.87c1.62,0.51,2.37,1.73,2.27,3.66c-0.1,1.85-0.97,3.01-2.45,3.36c-0.43,0.1-0.83,0.04-1.25-0.05
			c-0.65-0.14-1.21-0.9-2.02-0.01c-0.41,0.44-1.14-0.12-1.15-0.79c-0.05-2.58-0.02-5.17-0.01-7.75c0-0.47,0.28-0.82,0.75-0.91
			c0.49-0.09,0.91,0.06,1.06,0.61c-0.11,0.77-0.2,1.54,0.06,2.3c0.45,0.07,0.73-0.38,1.15-0.39C32.86,22.97,33.4,23.02,33.93,22.87z
			"/>
		<path class="st0" d="M31.62,15.87c-0.89,0.03-1.64-0.37-2.36-0.79c-0.45-0.27-0.83-0.63-0.49-1.22c0.32-0.56,0.8-0.53,1.29-0.23
			c0.74,0.44,1.52,0.77,2.39,0.74c0.54-0.02,1.13-0.05,1.28-0.73c0.16-0.72-0.42-0.93-0.91-1.12c-0.71-0.28-1.46-0.46-2.18-0.75
			c-0.98-0.39-1.58-1.1-1.56-2.2c0.01-1.11,0.58-1.91,1.57-2.35c1.5-0.67,2.94-0.3,4.32,0.41c0.42,0.22,0.59,0.61,0.39,1.07
			c-0.23,0.54-0.66,0.61-1.14,0.41c-0.71-0.3-1.4-0.64-2.2-0.59c-0.5,0.03-0.94,0.21-1.05,0.73c-0.11,0.51,0.3,0.76,0.7,0.93
			c0.75,0.3,1.52,0.54,2.26,0.85c0.75,0.32,1.46,0.72,1.59,1.65c-0.16,0.45-0.12,0.91-0.02,1.37c-0.36,1.25-1.26,1.79-2.5,1.84
			C32.54,15.71,32.08,15.72,31.62,15.87z"/>
		<path class="st0" d="M49.44,22.87c1.48,0.33,2.39,1.18,2.53,2.74c-0.16,0.54-0.15,1.07-0.01,1.61c-0.43,1.83-1.78,2.86-3.56,2.74
			c-1.92-0.14-3.17-1.38-3.33-3.33c-0.16-1.94,0.86-3.34,2.77-3.76C48.37,23.01,48.9,23,49.44,22.87z"/>
		<path class="st0" d="M37.21,25.39c0.27-1.41,1.1-2.26,2.52-2.52c0.54,0.13,1.07,0.14,1.61,0c1.88,0.43,2.9,1.83,2.76,3.77
			c-0.15,1.93-1.41,3.19-3.33,3.32c-1.77,0.12-3.13-0.92-3.56-2.74C37.35,26.61,37.34,26,37.21,25.39z"/>
		<path class="st0" d="M48.38,7.93c0.51-0.5,1.07-0.89,1.75-1.03c0.6-0.12,1.09,0.05,1.29,0.67c0.2,0.63-0.09,1.09-0.69,1.25
			c-1.98,0.52-2.52,1.93-2.45,3.77c0.03,0.73,0.01,1.46,0,2.19c0,0.67-0.27,1.12-1,1.15c-0.73,0.02-1.05-0.41-1.06-1.08
			c-0.01-2.27-0.01-4.54,0-6.81c0-0.56,0.26-1,0.81-1.13C47.79,6.73,48.1,7.31,48.38,7.93z"/>
		<path class="st0" d="M55.84,29.97c-1.46-0.02-2.07-0.55-2.19-1.85c-0.06-0.69-0.01-1.38-0.03-2.07c-0.03-0.67,0.26-1.41-0.71-1.8
			c-0.42-0.17-0.35-0.88,0.1-1.03c0.76-0.24,0.6-0.77,0.61-1.27c0.01-0.74,0.27-1.36,1.09-1.32c0.73,0.03,1,0.6,0.99,1.31
			c-0.01,0.55-0.19,1.2,0.76,1.15c0.35-0.02,0.52,0.33,0.54,0.65c0.02,0.38-0.22,0.72-0.6,0.72c-0.75,0.01-0.73,0.46-0.72,0.99
			c0.02,0.69,0.02,1.38,0,2.07c-0.01,0.54,0.18,0.79,0.75,0.68c0.56-0.11,1.05,0.02,1.09,0.68c0.04,0.61-0.4,0.86-0.95,0.95
			C56.29,29.87,55.99,29.94,55.84,29.97z"/>
		<path class="st1" d="M52.22,11.44c0-1.08,0.01-2.16-0.01-3.24c-0.01-0.7,0.19-1.28,0.96-1.31c0.75-0.03,1.08,0.52,1.08,1.22
			c0.01,2.24,0.01,4.47-0.01,6.71c-0.01,0.64-0.28,1.13-1.04,1.11c-0.74-0.02-1-0.46-1-1.14C52.23,13.68,52.22,12.56,52.22,11.44z"
			/>
		<path class="st2" d="M72.81,15.19c-0.4-0.47-0.21-1.04-0.2-1.55c0.07-2.1-0.23-4.21,0.15-6.3c0.33,0.4,0.24,0.87,0.23,1.32
			C72.91,10.84,73.21,13.03,72.81,15.19z"/>
		<path class="st3" d="M53.18,5.5c-0.62-0.1-0.99-0.45-0.95-1.08c0.04-0.63,0.45-1.01,1.05-0.98c0.59,0.03,1,0.46,0.96,1.08
			C54.2,5.12,53.81,5.47,53.18,5.5z"/>
		<path class="st4" d="M21.19,6.89c-0.06,0.05-0.12,0.13-0.18,0.13c-3.42,0.12-6.85,0.11-10.28,0c-0.06,0-0.12-0.09-0.18-0.13
			C14.1,6.79,17.65,6.8,21.19,6.89z"/>
		<path class="st5" d="M36.52,7.57c0.19,0.17,0.2,0.4,0.2,0.64c0,3.07,0,6.15-0.01,9.22c0,0.18-0.11,0.35-0.17,0.53
			C36.34,14.49,36.38,11.03,36.52,7.57z"/>
		<path class="st4" d="M63.07,15.19c-0.32-1.85-0.32-3.69,0-5.54C63.07,11.5,63.07,13.34,63.07,15.19z"/>
		<path class="st2" d="M61.24,15.24c0-1.55,0-3.11,0-4.66c0.12,1.62,0.49,3.24,0.05,4.84C61.22,15.37,61.21,15.31,61.24,15.24z"/>
		<path class="st6" d="M38.29,17.96c-0.27-1.08-0.37-2.16,0.07-3.23C38.39,15.81,38.5,16.89,38.29,17.96z"/>
		<path class="st6" d="M31.18,23.29c-0.42-0.76-0.34-1.53-0.06-2.3C31.28,21.75,31.2,22.52,31.18,23.29z"/>
		<path class="st7" d="M37.21,25.39c0.31,0.61,0.32,1.23-0.01,1.84C37.04,26.61,37.05,26,37.21,25.39z"/>
		<path class="st8" d="M33.93,22.87c-0.53,0.31-1.06,0.28-1.6,0.03C32.86,22.75,33.39,22.74,33.93,22.87z"/>
		<path class="st8" d="M41.34,22.87c-0.53,0.3-1.07,0.3-1.61,0C40.27,22.75,40.8,22.74,41.34,22.87z"/>
		<path class="st8" d="M49.44,22.87c-0.54,0.29-1.07,0.3-1.61,0C48.37,22.74,48.9,22.75,49.44,22.87z"/>
		<path class="st5" d="M51.97,27.22c-0.31-0.54-0.32-1.07,0.01-1.61C52.12,26.15,52.09,26.69,51.97,27.22z"/>
		<path class="st9" d="M67.28,15.86c0.46-0.32,0.92-0.32,1.38,0C68.2,15.97,67.74,15.97,67.28,15.86z"/>
		<path class="st5" d="M40.65,15.87c0.46-0.31,0.92-0.32,1.38,0.01C41.57,16.02,41.11,15.99,40.65,15.87z"/>
		<path class="st5" d="M35.5,14.03c-0.28-0.46-0.3-0.92,0.02-1.37C35.67,13.12,35.63,13.57,35.5,14.03z"/>
		<path class="st5" d="M31.62,15.87c0.46-0.32,0.92-0.32,1.38,0.01C32.54,15.97,32.08,15.97,31.62,15.87z"/>
		<path class="st10" d="M16.79,23.03c2.33-0.48,3.79-2.02,4.14-4.37c-0.12-0.46-0.12-0.92,0-1.38c-0.08-1.39-0.75-2.48-1.77-3.37
			c-0.52-0.45-0.9-0.94-0.34-1.55c0.57-0.63,1.11-0.2,1.6,0.21c2.4,2.01,3.11,5.62,1.68,8.52c-1.41,2.85-4.65,4.43-7.72,3.76
			c-3.08-0.67-5.38-3.43-5.5-6.58c-0.09-2.3,0.73-4.2,2.43-5.73c0.5-0.45,1.08-0.75,1.59-0.1c0.45,0.57,0.12,1.04-0.37,1.47
			c-0.96,0.82-1.63,1.83-1.74,3.14c0.13,0.54,0.14,1.07-0.01,1.61c0.05,2.31,2.52,4.43,4.38,4.38
			C15.72,22.89,16.25,22.92,16.79,23.03z"/>
		<path class="st11" d="M14.73,11.72c0.24-0.59,0.51-1.2,1.29-1.05c0.78,0.15,0.83,0.78,0.82,1.44c-0.01,1.81-0.01,3.62,0,5.43
			c0,0.56-0.01,1.12-0.65,1.34c-0.67,0.23-1.1-0.13-1.4-0.69c-0.39-0.38-0.19-0.87-0.18-1.3C14.66,15.16,14.45,13.43,14.73,11.72z"
			/>
		<path class="st5" d="M14.73,11.72c0.02,2.15,0.04,4.31,0.06,6.46c-0.2-0.08-0.3-0.23-0.3-0.44c0-1.88,0-3.76,0.02-5.64
			C14.51,11.97,14.66,11.85,14.73,11.72z"/>
		<path class="st5" d="M16.79,23.03c-0.54,0.11-1.07,0.13-1.61,0.02C15.72,22.71,16.25,22.73,16.79,23.03z"/>
		<path class="st5" d="M10.8,18.66c-0.13-0.54-0.11-1.07,0.01-1.61C11.13,17.59,11.13,18.13,10.8,18.66z"/>
		<path class="st6" d="M20.93,17.28c0,0.46,0,0.92,0,1.38C20.63,18.2,20.63,17.74,20.93,17.28z"/>
		<path class="st10" d="M65.9,10.83c0.06-0.1,0.13-0.19,0.17-0.3c0.54-1.42,1.4-2.05,2.64-1.91c1.17,0.13,2.1,1.07,2.25,2.28
			c0.18,1.45-0.43,2.65-1.6,3.14c-1.44,0.6-2.64-0.08-3.43-1.93C65.67,11.69,65.72,11.26,65.9,10.83z"/>
		<path class="st9" d="M65.9,10.83c0.01,0.42,0.02,0.85,0.03,1.27c-0.56-0.35-0.2-0.86-0.22-1.3c0-0.01,0.06-0.03,0.09-0.03
			C65.84,10.78,65.87,10.81,65.9,10.83z"/>
		<path class="st10" d="M38.34,10.8c0.04-0.06,0.11-0.12,0.13-0.19c0.36-1.19,1.13-1.92,2.4-1.97c1.02-0.05,1.79,0.46,2.23,1.36
			c0.54,1.12,0.5,2.25-0.24,3.28c-0.95,1.32-2.85,1.3-3.86-0.01c-0.25-0.33-0.41-0.72-0.61-1.09C38.11,11.72,38.16,11.26,38.34,10.8
			z"/>
		<path class="st6" d="M38.34,10.8c0.01,0.46,0.02,0.92,0.03,1.38C37.94,11.73,37.99,11.26,38.34,10.8z"/>
		<path class="st12" d="M34.1,27.21c-0.38,0.67-0.84,1.23-1.73,0.95c-0.91-0.28-1.02-1.04-1.03-1.84c0-0.85,0.17-1.64,1.09-1.95
			c0.93-0.31,1.28,0.4,1.68,1.02C34.36,26,34.41,26.61,34.1,27.21z"/>
		<path class="st13" d="M34.1,27.21c0.01-0.61,0.01-1.21,0.02-1.82C34.54,26,34.57,26.61,34.1,27.21z"/>
		<path class="st14" d="M50.09,26.98c-0.33,0.74-0.65,1.52-1.68,1.38c-0.81-0.11-1.15-0.74-1.24-1.45
			c-0.12-0.92-0.13-1.88,0.81-2.45c0.8-0.48,1.53-0.05,2.12,1.22C50.35,26.12,50.36,26.55,50.09,26.98z"/>
		<path class="st9" d="M50.09,26.98c0-0.43,0-0.86,0-1.29C50.55,26.12,50.47,26.55,50.09,26.98z"/>
		<path class="st14" d="M39.08,25.69c0.32-0.71,0.63-1.46,1.59-1.39c0.75,0.05,1.19,0.58,1.3,1.27c0.16,0.95,0.24,1.95-0.71,2.6
			c-0.84,0.58-1.56,0.15-2.19-1.23C38.84,26.52,38.82,26.1,39.08,25.69z"/>
		<path class="st9" d="M39.08,25.69c0,0.42-0.01,0.83-0.01,1.25c-0.49-0.39-0.25-0.87-0.17-1.33c0,0,0.07-0.01,0.1,0.01
			C39.03,25.63,39.05,25.67,39.08,25.69z"/>
	</g>
</g>
</svg>
